<?xml version="1.0" standalone="no"?>
<!DOCTYPE svg PUBLIC "-//W3C//DTD SVG 20010904//EN"
 "http://www.w3.org/TR/2001/REC-SVG-20010904/DTD/svg10.dtd">
<svg version="1.0" xmlns="http://www.w3.org/2000/svg"
 width="1456.000000pt" height="1456.000000pt" viewBox="0 0 1456.000000 1456.000000"
 preserveAspectRatio="xMidYMid meet">
<metadata>
Created by potrace 1.11, written by Peter Selinger 2001-2013
</metadata>
<g transform="translate(0.000000,1456.000000) scale(0.100000,-0.100000)"
fill="#000000" stroke="none">
<path d="M2 9208 l3 -643 637 0 c418 0 639 3 641 10 2 5 3 292 3 638 -1 345 1
627 4 627 3 0 484 -479 1070 -1065 l1064 -1065 963 -2 c530 -2 963 -1 963 0 0
2 -481 485 -1069 1073 l-1069 1069 -1606 0 -1606 0 2 -642z"/>
<path d="M6433 8787 c-585 -584 -1066 -1065 -1070 -1069 -3 -5 137 -8 313 -8
l320 0 1064 1065 c586 585 1067 1065 1070 1065 3 0 5 -574 5 -1276 0 -1267 0
-1277 20 -1284 11 -4 23 -6 27 -4 4 3 42 4 85 4 43 0 116 0 163 0 47 1 92 1
100 1 15 0 275 0 295 0 6 0 55 0 110 -1 55 0 132 0 172 0 40 0 78 -1 85 -2 11
-3 13 234 15 1285 l1 1287 -856 0 -857 0 -1062 -1063z"/>
<path d="M6445 7281 c-21 -6 -21 -7 -21 -1288 l0 -1283 856 0 856 0 -1 521 c0
286 3 525 6 531 3 5 148 -133 322 -307 l316 -317 738 0 c406 0 740 3 742 7 2
5 -474 487 -1059 1072 l-1064 1063 -45 1 c-25 1 -50 1 -54 0 -7 -1 -90 -1
-137 0 -8 0 -55 0 -105 0 -81 -1 -179 -1 -415 0 -41 0 -86 0 -100 1 -14 0 -50
0 -80 -1 -48 -2 -448 -3 -490 -2 -74 2 -184 0 -187 -3 -3 -2 -17 -1 -31 3 -15
4 -36 5 -47 2z"/>
<path d="M12475 7281 c-3 -2 -17 -4 -33 -3 -24 0 -174 -146 -1096 -1069 -587
-588 -1062 -1069 -1055 -1069 8 -1 200 -1 428 -1 l414 -1 1063 1064 c585 584
1064 1066 1064 1070 0 11 -31 14 -90 8 -30 -3 -71 -3 -90 0 -19 3 -65 3 -101
0 -37 -3 -77 -3 -89 0 -13 3 -48 3 -79 0 -31 -3 -69 -3 -86 0 -16 3 -57 3 -90
0 -33 -3 -82 -3 -108 0 -26 4 -50 4 -52 1z"/>
<path d="M13310 7282 l-35 -3 0 -637 c-1 -350 2 -639 6 -642 4 -3 292 -5 641
-5 l633 0 3 643 2 642 -27 1 c-16 1 -32 0 -38 -1 -9 -2 -120 0 -172 2 -10 0
-45 0 -78 -1 -85 -2 -473 -3 -515 0 -39 2 -48 2 -140 0 -36 -1 -105 0 -155 1
-49 2 -106 2 -125 0z"/>
</g>
</svg>
